<svg width="202" height="62" viewBox="0 0 202 62" fill="none"
    xmlns="http://www.w3.org/2000/svg">
    <g clip-path="url(#clip0_1259_18741)">
        <path d="M18.041 15.9773V22.6859H20.3387V18.2567C19.5378 17.5435 18.7819 16.7754 18.041 15.9773Z" fill="#1F5FFF"/>
        <path d="M39.5254 17.8278V22.6859H41.9583V15.4785C41.1573 16.2716 40.3464 17.0596 39.5254 17.8278Z" fill="#1F5FFF"/>
        <path d="M39.5261 41.6697V50.4233H39.5161C39.3359 55.5009 35.136 59.581 30 59.581C24.859 59.581 20.6591 55.5059 20.4839 50.4233H20.4739V41.6697H18.041V50.0841C18.041 56.6531 23.4073 62.0001 30 62.0001C36.5927 62.0001 41.9589 56.6531 41.9589 50.0841V41.6697H39.5261Z" fill="#1F5FFF"/>
        <path d="M20.4739 41.6696H13.8512V41.6048H11.9589C6.70782 41.6048 2.43283 37.3451 2.43283 32.1129C2.43283 26.8807 6.70782 22.621 11.9589 22.621H20.3387V20.197H11.9589C5.36625 20.197 0 25.5439 0 32.1129C0 38.6819 5.36625 44.0288 11.9589 44.0288H20.4739V41.6696Z" fill="#1F5FFF"/>
        <path d="M48.0404 20.197H39.5254V22.621H48.0404C53.2915 22.621 57.5665 26.8807 57.5665 32.1129C57.5665 37.3451 53.2915 41.6048 48.0404 41.6048H44.9317V41.6696H39.5254V44.0239H48.0404C54.6331 44.0239 59.9993 38.6769 59.9993 32.1079C59.9993 25.5389 54.6331 20.197 48.0404 20.197Z" fill="#1F5FFF"/>
        <path d="M18.988 51.0965C14.9633 51.0965 11.6895 47.8345 11.6895 43.8243C11.6895 39.8141 14.9633 36.552 18.988 36.552C23.0127 36.552 26.2865 39.8141 26.2865 43.8243C26.2865 47.8345 23.0127 51.0965 18.988 51.0965ZM18.988 38.9761C16.3049 38.9761 14.1224 41.1508 14.1224 43.8243C14.1224 46.4978 16.3049 48.6724 18.988 48.6724C21.6712 48.6724 23.8537 46.4978 23.8537 43.8243C23.8537 41.1508 21.6712 38.9761 18.988 38.9761Z" fill="#04CE78"/>
        <path d="M22.6724 47.6343C24.7836 45.5307 24.7836 42.1199 22.6724 40.0162C20.5611 37.9126 17.138 37.9126 15.0268 40.0162C12.9155 42.1199 12.9155 45.5307 15.0268 47.6344C17.138 49.738 20.5611 49.738 22.6724 47.6343Z" fill="#04CE78"/>
        <path d="M18.988 51.0965C14.9633 51.0965 11.6895 47.8345 11.6895 43.8243C11.6895 39.8141 14.9633 36.552 18.988 36.552C23.0127 36.552 26.2865 39.8141 26.2865 43.8243C26.2865 47.8345 23.0127 51.0965 18.988 51.0965ZM18.988 38.9761C16.3049 38.9761 14.1224 41.1508 14.1224 43.8243C14.1224 46.4978 16.3049 48.6724 18.988 48.6724C21.6712 48.6724 23.8537 46.4978 23.8537 43.8243C23.8537 41.1508 21.6712 38.9761 18.988 38.9761Z" fill="#1F5FFF"/>
        <path d="M30.3711 21.4739V34.966C30.3711 39.1109 33.3095 42.4777 37.4694 42.4777L47.6363 42.6123" stroke="#1F5FFF" stroke-width="2.6" stroke-miterlimit="10" stroke-linecap="round" stroke-linejoin="round"/>
        <path d="M27.748 2.33564L26.2913 2.24088C20.084 1.82688 16.5449 9.41339 21.0452 13.6879C21.1653 13.8027 21.2954 13.9174 21.4256 14.0271L29.8004 21.6086" stroke="#1F5FFF" stroke-width="3" stroke-miterlimit="10" stroke-linecap="round" stroke-linejoin="round"/>
        <path d="M33.2243 2.11104L34.681 2.01627C40.8882 1.60228 44.4273 9.18878 39.9271 13.4634C39.8069 13.5781 39.6768 13.6928 39.5466 13.8025L31.1719 21.384" stroke="#1F5FFF" stroke-width="3" stroke-miterlimit="10" stroke-linecap="round" stroke-linejoin="round"/>
        <path d="M81.564 45.66C78.8947 45.66 76.416 45.3813 74.128 44.824C71.84 44.2667 69.992 43.4893 68.584 42.492C67.9973 42.0813 67.704 41.6853 67.704 41.304C67.704 41.04 67.8067 40.7613 68.012 40.468L70.564 36.464C70.828 36.0827 71.092 35.892 71.356 35.892C71.5907 35.892 71.8693 35.9947 72.192 36.2C73.248 36.8453 74.4507 37.3587 75.8 37.74C77.1787 38.092 78.5133 38.268 79.804 38.268C80.8893 38.268 81.6667 38.1213 82.136 37.828C82.6347 37.5347 82.884 37.08 82.884 36.464C82.884 35.7893 82.5613 35.2467 81.916 34.836C81.2707 34.4253 80.156 33.912 78.572 33.296C75.6093 32.152 73.2773 30.8613 71.576 29.424C69.8747 27.9573 69.024 26.0213 69.024 23.616C69.024 20.5653 70.08 18.2773 72.192 16.752C74.3333 15.1973 77.208 14.42 80.816 14.42C83.3387 14.42 85.48 14.64 87.24 15.08C89.0293 15.52 90.584 16.2093 91.904 17.148C92.4907 17.5587 92.784 17.9547 92.784 18.336C92.784 18.6 92.6813 18.8787 92.476 19.172L89.924 23.176C89.66 23.5867 89.396 23.792 89.132 23.792C88.956 23.792 88.6773 23.6747 88.296 23.44C87.592 22.9707 86.756 22.5893 85.788 22.296C84.82 21.9733 83.7787 21.812 82.664 21.812C81.6373 21.812 80.86 21.9587 80.332 22.252C79.804 22.5453 79.54 23.0147 79.54 23.66C79.54 24.188 79.716 24.628 80.068 24.98C80.4493 25.332 80.9187 25.64 81.476 25.904C82.0333 26.1387 83.0013 26.5347 84.38 27.092C86.58 27.972 88.3107 28.8227 89.572 29.644C90.8333 30.436 91.7867 31.404 92.432 32.548C93.0773 33.6627 93.4 35.0853 93.4 36.816C93.4 39.456 92.4027 41.5973 90.408 43.24C88.4427 44.8533 85.4947 45.66 81.564 45.66ZM103.062 45.66C100.363 45.66 98.1924 44.7653 96.5498 42.976C94.9071 41.1573 94.0858 38.62 94.0858 35.364C94.0858 32.9587 94.7018 30.832 95.9338 28.984C97.1658 27.136 98.8671 25.7133 101.038 24.716C103.238 23.7187 105.702 23.22 108.43 23.22C110.776 23.22 112.756 23.4547 114.37 23.924C116.012 24.364 117.611 25.0973 119.166 26.124V43.548C119.166 44.1347 119.048 44.5307 118.814 44.736C118.608 44.912 118.168 45 117.494 45H111.95C111.627 45 111.378 44.956 111.202 44.868C111.026 44.78 110.864 44.6187 110.718 44.384L110.014 43.284C109.163 44.076 108.18 44.6627 107.066 45.044C105.951 45.4547 104.616 45.66 103.062 45.66ZM106.978 38.664C107.711 38.664 108.312 38.4587 108.782 38.048C109.251 37.6373 109.486 37.0653 109.486 36.332V30.348C109.222 30.2307 108.87 30.172 108.43 30.172C107.227 30.172 106.288 30.6267 105.614 31.536C104.939 32.416 104.602 33.692 104.602 35.364C104.602 37.564 105.394 38.664 106.978 38.664ZM160.556 45.66C157.564 45.66 155.261 44.8533 153.648 43.24C152.034 41.5973 151.228 39.324 151.228 36.42V30.92H149.82C148.881 30.92 148.236 30.7293 147.884 30.348C147.561 29.9373 147.4 29.292 147.4 28.412V26.388C147.4 25.508 147.561 24.8773 147.884 24.496C148.236 24.0853 148.881 23.88 149.82 23.88H151.228V23.396C151.228 22.6333 151.418 21.8707 151.8 21.108C152.181 20.316 152.709 19.348 153.384 18.204C153.706 17.6467 154.014 17.28 154.308 17.104C154.601 16.928 155.144 16.84 155.936 16.84H159.104C160.101 16.84 160.79 17.0453 161.172 17.456C161.582 17.8373 161.788 18.468 161.788 19.348V23.88H164.428C165.366 23.88 165.997 24.0853 166.32 24.496C166.672 24.8773 166.848 25.508 166.848 26.388V28.412C166.848 29.292 166.672 29.9373 166.32 30.348C165.997 30.7293 165.366 30.92 164.428 30.92H161.788V36.244C161.788 36.9187 161.92 37.432 162.184 37.784C162.477 38.1067 162.932 38.268 163.548 38.268C163.988 38.268 164.31 38.224 164.516 38.136C164.721 38.048 165.029 37.872 165.44 37.608C165.704 37.432 165.953 37.344 166.188 37.344C166.54 37.344 166.833 37.5493 167.068 37.96L169.136 41.524C169.4 41.9933 169.532 42.3747 169.532 42.668C169.532 42.9907 169.356 43.2693 169.004 43.504C167.918 44.208 166.701 44.736 165.352 45.088C164.032 45.4693 162.433 45.66 160.556 45.66ZM175.56 51.864C172.832 51.864 170.573 51.0867 168.784 49.532C168.432 49.268 168.256 48.9747 168.256 48.652C168.256 48.3587 168.359 48.0507 168.564 47.728L170.632 44.12C170.896 43.68 171.175 43.46 171.468 43.46C171.703 43.46 172.025 43.5773 172.436 43.812C172.876 44.076 173.257 44.2667 173.58 44.384C173.932 44.5013 174.343 44.56 174.812 44.56C175.78 44.56 176.381 44.164 176.616 43.372L168.256 25.772C168.08 25.42 167.992 25.0973 167.992 24.804C167.992 24.188 168.329 23.88 169.004 23.88H176.836C177.687 23.88 178.259 24.276 178.552 25.068L181.28 33.252L184.008 25.068C184.301 24.276 184.873 23.88 185.724 23.88H193.556C194.201 23.88 194.524 24.188 194.524 24.804C194.524 25.068 194.451 25.3907 194.304 25.772L186.164 43.02C185.196 45.1027 184.243 46.7747 183.304 48.036C182.365 49.2973 181.265 50.2507 180.004 50.896C178.772 51.5413 177.291 51.864 175.56 51.864Z" fill="#1F5FFF"/>
        <path d="M124.847 45C124.172 45 123.835 44.692 123.835 44.076C123.835 43.7827 123.923 43.46 124.099 43.108L134.263 22.56H123.351C122.412 22.56 121.767 22.3693 121.415 21.988C121.092 21.5773 120.931 20.932 120.931 20.052V17.588C120.931 16.708 121.092 16.0773 121.415 15.696C121.767 15.2853 122.412 15.08 123.351 15.08H143.767C145.028 15.08 145.879 15.2707 146.319 15.652C146.759 16.004 146.979 16.6787 146.979 17.676C146.979 18.7907 146.788 19.7 146.407 20.404L134.835 43.812C134.63 44.2227 134.395 44.5307 134.131 44.736C133.896 44.912 133.559 45 133.119 45H124.847Z" fill="#04CE78"/>
    </g>
    <defs>
        <clipPath id="clip0_1259_18741">
            <rect width="202" height="62" fill="white"/>
        </clipPath>
    </defs>
</svg>
    